<svg width="1396" height="305" viewBox="0 0 1396 305" fill="none" xmlns="http://www.w3.org/2000/svg">
<path d="M138.893 0C61.9385 0 0 61.9387 0 138.893C0 203.647 44.1078 257.139 103.231 273.093V244.001C59.1233 228.985 28.1539 187.693 28.1539 138.893C28.1539 77.8925 77.8924 28.1539 138.893 28.1539C199.893 28.1539 249.631 77.8925 249.631 138.893C249.631 187.693 217.724 228.985 174.554 244.001V273.093C233.677 257.139 277.785 203.647 277.785 138.893C277.785 61.9387 215.847 0 138.893 0Z" fill="black"/>
<path d="M204.585 130.446C168.923 130.446 138.892 101.353 138.892 64.7532C138.892 100.415 109.8 130.446 73.1997 130.446C82.5844 130.446 91.0306 132.323 98.5384 135.138C114.492 141.707 124.815 155.784 124.815 178.307V305H152.969V178.307C152.969 155.784 163.292 141.707 179.246 135.138C186.754 132.323 195.2 130.446 204.585 130.446Z" fill="black"/>
<path d="M627.833 190.508C610.941 239.308 562.14 276.847 501.14 276.847C420.432 276.847 361.309 213.97 361.309 137.954C361.309 64.754 417.617 0 500.202 0C571.525 0 614.694 50.6771 627.833 87.2772H582.786C574.34 70.3848 547.125 37.5386 500.202 37.5386C443.894 37.5386 403.54 84.4618 403.54 137.954C403.54 193.324 443.894 239.308 500.202 239.308C551.817 239.308 576.217 200.831 582.786 190.508H627.833Z" fill="black"/>
<path d="M667.249 4.69214H704.788V272.154H667.249V4.69214Z" fill="black"/>
<path d="M780.803 185.817C782.679 225.232 817.403 245.878 846.495 245.878C872.772 245.878 892.48 233.678 902.803 213.032H941.28C931.895 234.617 917.818 250.571 901.864 261.832C884.972 273.094 866.203 278.725 845.557 278.725C781.741 278.725 741.387 227.109 741.387 175.494C741.387 119.186 785.495 71.324 844.618 71.324C872.772 71.324 898.111 81.6471 916.88 100.416C940.342 123.878 949.726 154.847 945.972 187.694H780.803V185.817ZM911.249 156.724C909.372 130.447 883.095 101.355 846.495 102.293C808.018 102.293 783.618 130.447 781.741 156.724H911.249Z" fill="black"/>
<path d="M1024.8 106.985V272.155H987.265V76.0161H1022.93C1022.93 76.0161 1054.83 76.0161 1081.11 76.0161V107.924H1024.8V106.985Z" fill="black"/>
<path d="M1113.02 4.69214H1150.56V44.1076H1113.02V4.69214ZM1113.02 76.0154H1150.56V272.154H1113.02V76.0154Z" fill="black"/>
<path d="M1395.5 202.708C1383.3 244.939 1344.82 276.847 1296.02 276.847C1232.2 276.847 1190.91 227.109 1190.91 172.678C1190.91 114.493 1235.02 68.5081 1294.14 68.5081C1341.07 68.5081 1383.3 97.6004 1395.5 144.524H1357.02C1346.7 118.247 1322.3 103.231 1296.02 103.231C1276.31 103.231 1262.23 109.8 1248.16 122.001C1236.9 133.262 1229.39 152.031 1229.39 171.739C1229.39 212.093 1258.48 240.247 1296.02 240.247C1328.87 240.247 1349.51 219.601 1357.02 200.832H1395.5V202.708Z" fill="black"/>
</svg>
